<svg width="124" height="124" viewBox="0 0 124 124" fill="none" xmlns="http://www.w3.org/2000/svg">
<g filter="url(#filter0_d_3_151)">
<circle cx="58" cy="58" r="46" fill="#13B383"/>
</g>
<path d="M67.4156 58.8047C69.6426 58.8047 71.659 58.9312 72.8994 59.1668C72.9187 59.1668 74.0537 59.4003 74.4321 59.5508C74.9781 59.7864 75.4403 60.2118 75.7348 60.7442C75.9454 61.1696 76.0486 61.619 76.0486 62.0881C76.0293 62.5768 75.7133 63.4953 75.5649 63.8575C74.6427 66.2442 71.616 70.8061 69.7695 72.5558C69.475 72.8526 69.1181 73.1733 69.0343 73.2584C68.5699 73.6205 68.0046 73.8125 67.3962 73.8125C66.8481 73.8125 66.3021 73.6423 65.8614 73.2998C65.6324 73.1362 65.2983 72.8106 65.1455 72.658L65.0638 72.5755C63.1506 70.7865 60.2744 66.3293 59.35 64.0691C59.3303 64.0691 58.8699 62.9416 58.7767 62.2614L58.761 62.0881V62.003C58.761 61.0213 59.3071 60.1049 60.1906 59.6359C60.6742 59.3806 62.0801 59.145 62.1016 59.1232C63.3613 58.9312 65.2939 58.8047 67.4156 58.8047ZM47.9556 58.917C48.8359 58.917 49.5605 59.5885 49.6595 60.4548L49.6711 60.6579L50.1419 69.0682C50.1419 70.2942 49.1638 71.2869 47.9556 71.2869C46.823 71.2869 45.8907 70.4144 45.7786 69.2951L45.7673 69.0682L46.2402 60.6579C46.2402 59.6958 47.0076 58.917 47.9556 58.917ZM47.967 40.75C48.5109 40.75 49.0569 40.9202 49.4998 41.2605C49.6905 41.3982 49.9544 41.6476 50.1254 41.8152L50.2973 41.987C52.2083 43.7781 55.0867 48.233 56.0111 50.4932C56.0288 50.4932 56.4909 51.6225 56.5844 52.303L56.6001 52.4763V52.5614C56.6001 53.541 56.0519 54.4573 55.1706 54.9263C54.6869 55.1837 53.281 55.4172 53.2595 55.439C51.9998 55.631 50.0673 55.7575 47.9455 55.7575C45.7185 55.7575 43.7021 55.631 42.4618 55.3954C42.4403 55.3954 41.3074 55.1619 40.929 55.0114C40.383 54.778 39.9209 54.3504 39.6264 53.818C39.4157 53.3926 39.3125 52.9432 39.3125 52.4763C39.3318 51.9855 39.6478 51.0692 39.794 50.707C40.7184 48.3181 43.743 43.7563 45.5917 42.0088C45.8862 41.7099 46.243 41.3892 46.3268 41.3041C46.789 40.942 47.3565 40.75 47.967 40.75ZM67.4059 43.2756C68.5385 43.2756 69.469 44.1481 69.5808 45.2674L69.5921 45.4944L69.1213 53.9048C69.1213 54.8669 68.3539 55.6458 67.4059 55.6458C66.5256 55.6458 65.801 54.9742 65.702 54.1079L65.6905 53.9048L65.2175 45.4944C65.2175 44.2683 66.1978 43.2756 67.4059 43.2756Z" fill="white"/>
<defs>
<filter id="filter0_d_3_151" x="0" y="0" width="124" height="124" filterUnits="userSpaceOnUse" color-interpolation-filters="sRGB">
<feFlood flood-opacity="0" result="BackgroundImageFix"/>
<feColorMatrix in="SourceAlpha" type="matrix" values="0 0 0 0 0 0 0 0 0 0 0 0 0 0 0 0 0 0 127 0" result="hardAlpha"/>
<feOffset dx="4" dy="4"/>
<feGaussianBlur stdDeviation="8"/>
<feComposite in2="hardAlpha" operator="out"/>
<feColorMatrix type="matrix" values="0 0 0 0 0 0 0 0 0 0 0 0 0 0 0 0 0 0 0.25 0"/>
<feBlend mode="normal" in2="BackgroundImageFix" result="effect1_dropShadow_3_151"/>
<feBlend mode="normal" in="SourceGraphic" in2="effect1_dropShadow_3_151" result="shape"/>
</filter>
</defs>
</svg>
