<svg width="124" height="124" viewBox="0 0 124 124" fill="none" xmlns="http://www.w3.org/2000/svg">
<g filter="url(#filter0_d_3_152)">
<circle cx="58" cy="58" r="46" fill="black"/>
</g>
<path d="M65.378 41C71.141 41 75 45.046 75 51.064V64.9547C75 70.954 71.141 75 65.378 75H50.639C44.876 75 41 70.954 41 64.9547V51.064C41 45.046 44.876 41 50.639 41H65.378ZM65.106 52.9C64.528 52.322 63.576 52.322 62.998 52.9L55.977 59.921L53.002 56.946C52.424 56.368 51.472 56.368 50.894 56.946C50.316 57.524 50.316 58.459 50.894 59.054L54.94 63.083C55.229 63.372 55.603 63.508 55.977 63.508C56.368 63.508 56.742 63.372 57.031 63.083L65.106 55.008C65.684 54.43 65.684 53.495 65.106 52.9Z" fill="#13B383"/>
<defs>
<filter id="filter0_d_3_152" x="0" y="0" width="124" height="124" filterUnits="userSpaceOnUse" color-interpolation-filters="sRGB">
<feFlood flood-opacity="0" result="BackgroundImageFix"/>
<feColorMatrix in="SourceAlpha" type="matrix" values="0 0 0 0 0 0 0 0 0 0 0 0 0 0 0 0 0 0 127 0" result="hardAlpha"/>
<feOffset dx="4" dy="4"/>
<feGaussianBlur stdDeviation="8"/>
<feComposite in2="hardAlpha" operator="out"/>
<feColorMatrix type="matrix" values="0 0 0 0 0 0 0 0 0 0 0 0 0 0 0 0 0 0 0.25 0"/>
<feBlend mode="normal" in2="BackgroundImageFix" result="effect1_dropShadow_3_152"/>
<feBlend mode="normal" in="SourceGraphic" in2="effect1_dropShadow_3_152" result="shape"/>
</filter>
</defs>
</svg>
