<svg width="484" height="313" viewBox="0 0 484 313" fill="none" xmlns="http://www.w3.org/2000/svg">
<rect x="51.07" width="432.93" height="312.72" rx="26.1326" fill="white"/>
<rect x="51.9411" y="0.871087" width="431.188" height="310.978" rx="25.2615" stroke="black" stroke-opacity="0.2" stroke-width="1.74217"/>
<path d="M105.27 295.435C104.523 295.431 103.884 295.234 103.354 294.843C102.824 294.452 102.419 293.882 102.138 293.135C101.857 292.387 101.717 291.486 101.717 290.433C101.717 289.382 101.857 288.485 102.138 287.74C102.422 286.996 102.829 286.428 103.359 286.037C103.892 285.645 104.529 285.45 105.27 285.45C106.012 285.45 106.647 285.647 107.177 286.041C107.707 286.432 108.113 287 108.394 287.745C108.678 288.486 108.82 289.382 108.82 290.433C108.82 291.49 108.679 292.392 108.398 293.139C108.118 293.884 107.712 294.453 107.182 294.848C106.652 295.239 106.015 295.435 105.27 295.435ZM105.27 294.171C105.927 294.171 106.439 293.851 106.808 293.21C107.181 292.57 107.367 291.644 107.367 290.433C107.367 289.628 107.282 288.948 107.111 288.393C106.944 287.835 106.703 287.412 106.387 287.125C106.075 286.835 105.703 286.69 105.27 286.69C104.617 286.69 104.105 287.011 103.732 287.655C103.36 288.299 103.172 289.224 103.169 290.433C103.169 291.24 103.253 291.923 103.42 292.482C103.591 293.037 103.832 293.458 104.144 293.745C104.456 294.029 104.832 294.171 105.27 294.171ZM113.854 285.45C114.286 285.453 114.712 285.532 115.132 285.686C115.551 285.841 115.93 286.093 116.267 286.444C116.608 286.794 116.879 287.267 117.081 287.863C117.286 288.456 117.391 289.194 117.394 290.078C117.394 290.926 117.309 291.682 117.138 292.344C116.968 293.004 116.723 293.561 116.405 294.015C116.089 294.469 115.706 294.815 115.255 295.051C114.804 295.288 114.296 295.406 113.731 295.406C113.154 295.406 112.641 295.293 112.193 295.065C111.745 294.838 111.381 294.524 111.1 294.124C110.819 293.72 110.644 293.256 110.575 292.733H112.018C112.113 293.149 112.305 293.487 112.595 293.745C112.889 294.001 113.267 294.129 113.731 294.129C114.441 294.129 114.995 293.819 115.392 293.201C115.789 292.58 115.99 291.712 115.993 290.598H115.917C115.753 290.87 115.548 291.103 115.302 291.299C115.059 291.494 114.786 291.646 114.483 291.753C114.181 291.86 113.857 291.914 113.513 291.914C112.955 291.914 112.447 291.777 111.99 291.502C111.532 291.228 111.168 290.851 110.896 290.371C110.625 289.892 110.49 289.344 110.49 288.729C110.49 288.117 110.628 287.562 110.906 287.063C111.187 286.565 111.578 286.171 112.08 285.88C112.584 285.587 113.176 285.443 113.854 285.45ZM113.859 286.68C113.49 286.68 113.157 286.772 112.86 286.955C112.567 287.134 112.335 287.379 112.165 287.688C111.994 287.994 111.909 288.335 111.909 288.71C111.909 289.086 111.991 289.426 112.155 289.732C112.322 290.035 112.55 290.277 112.837 290.456C113.127 290.633 113.458 290.721 113.83 290.721C114.108 290.721 114.367 290.668 114.606 290.56C114.846 290.453 115.056 290.305 115.236 290.116C115.416 289.923 115.556 289.706 115.657 289.463C115.758 289.22 115.808 288.964 115.808 288.696C115.808 288.34 115.723 288.008 115.553 287.702C115.386 287.396 115.155 287.15 114.862 286.964C114.569 286.775 114.234 286.68 113.859 286.68ZM120.188 294.072C119.929 294.072 119.706 293.98 119.52 293.797C119.334 293.611 119.241 293.387 119.241 293.125C119.241 292.867 119.334 292.646 119.52 292.463C119.706 292.277 119.929 292.184 120.188 292.184C120.446 292.184 120.669 292.277 120.855 292.463C121.041 292.646 121.134 292.867 121.134 293.125C121.134 293.299 121.09 293.458 121.002 293.603C120.916 293.745 120.803 293.859 120.661 293.944C120.519 294.029 120.361 294.072 120.188 294.072ZM120.188 289.217C119.929 289.217 119.706 289.125 119.52 288.942C119.334 288.756 119.241 288.532 119.241 288.27C119.241 288.011 119.334 287.791 119.52 287.608C119.706 287.422 119.929 287.328 120.188 287.328C120.446 287.328 120.669 287.422 120.855 287.608C121.041 287.791 121.134 288.011 121.134 288.27C121.134 288.444 121.09 288.603 121.002 288.748C120.916 288.89 120.803 289.004 120.661 289.089C120.519 289.174 120.361 289.217 120.188 289.217ZM126.518 295.435C125.77 295.431 125.131 295.234 124.601 294.843C124.071 294.452 123.666 293.882 123.385 293.135C123.104 292.387 122.964 291.486 122.964 290.433C122.964 289.382 123.104 288.485 123.385 287.74C123.669 286.996 124.076 286.428 124.606 286.037C125.139 285.645 125.776 285.45 126.518 285.45C127.259 285.45 127.895 285.647 128.425 286.041C128.955 286.432 129.36 287 129.641 287.745C129.925 288.486 130.067 289.382 130.067 290.433C130.067 291.49 129.926 292.392 129.645 293.139C129.365 293.884 128.959 294.453 128.429 294.848C127.899 295.239 127.262 295.435 126.518 295.435ZM126.518 294.171C127.174 294.171 127.686 293.851 128.056 293.21C128.428 292.57 128.614 291.644 128.614 290.433C128.614 289.628 128.529 288.948 128.358 288.393C128.191 287.835 127.95 287.412 127.634 287.125C127.322 286.835 126.95 286.69 126.518 286.69C125.865 286.69 125.352 287.011 124.98 287.655C124.607 288.299 124.42 289.224 124.416 290.433C124.416 291.24 124.5 291.923 124.667 292.482C124.838 293.037 125.079 293.458 125.391 293.745C125.704 294.029 126.079 294.171 126.518 294.171ZM135.253 295.435C134.505 295.431 133.866 295.234 133.336 294.843C132.806 294.452 132.401 293.882 132.12 293.135C131.839 292.387 131.699 291.486 131.699 290.433C131.699 289.382 131.839 288.485 132.12 287.74C132.404 286.996 132.811 286.428 133.341 286.037C133.874 285.645 134.511 285.45 135.253 285.45C135.994 285.45 136.63 285.647 137.16 286.041C137.69 286.432 138.095 287 138.376 287.745C138.66 288.486 138.802 289.382 138.802 290.433C138.802 291.49 138.661 292.392 138.381 293.139C138.1 293.884 137.694 294.453 137.164 294.848C136.634 295.239 135.997 295.435 135.253 295.435ZM135.253 294.171C135.909 294.171 136.421 293.851 136.791 293.21C137.163 292.57 137.349 291.644 137.349 290.433C137.349 289.628 137.264 288.948 137.093 288.393C136.926 287.835 136.685 287.412 136.369 287.125C136.057 286.835 135.685 286.69 135.253 286.69C134.6 286.69 134.087 287.011 133.715 287.655C133.342 288.299 133.155 289.224 133.152 290.433C133.152 291.24 133.235 291.923 133.402 292.482C133.573 293.037 133.814 293.458 134.126 293.745C134.439 294.029 134.814 294.171 135.253 294.171Z" fill="#ADAFBD"/>
<path d="M266.433 285.582V295.274H264.966V287.049H264.909L262.591 288.564V287.163L265.009 285.582H266.433ZM272.463 295.406C271.784 295.406 271.185 295.289 270.664 295.056C270.147 294.823 269.742 294.501 269.448 294.091C269.155 293.681 269.01 293.214 269.013 292.69C269.01 292.28 269.093 291.903 269.264 291.559C269.437 291.212 269.672 290.923 269.969 290.693C270.265 290.46 270.597 290.311 270.963 290.248V290.191C270.48 290.075 270.093 289.816 269.803 289.415C269.513 289.015 269.369 288.554 269.373 288.034C269.369 287.538 269.5 287.097 269.765 286.709C270.034 286.317 270.401 286.01 270.868 285.786C271.335 285.562 271.866 285.45 272.463 285.45C273.053 285.45 273.579 285.563 274.043 285.791C274.51 286.014 274.878 286.322 275.146 286.713C275.414 287.101 275.55 287.541 275.553 288.034C275.55 288.554 275.401 289.015 275.108 289.415C274.815 289.816 274.433 290.075 273.963 290.191V290.248C274.326 290.311 274.652 290.46 274.942 290.693C275.236 290.923 275.469 291.212 275.643 291.559C275.819 291.903 275.909 292.28 275.912 292.69C275.909 293.214 275.761 293.681 275.468 294.091C275.174 294.501 274.767 294.823 274.247 295.056C273.729 295.289 273.135 295.406 272.463 295.406ZM272.463 294.209C272.863 294.209 273.21 294.143 273.504 294.01C273.797 293.875 274.024 293.687 274.185 293.447C274.346 293.204 274.428 292.92 274.431 292.595C274.428 292.258 274.34 291.96 274.166 291.701C273.996 291.442 273.764 291.239 273.471 291.09C273.177 290.942 272.841 290.868 272.463 290.868C272.081 290.868 271.742 290.942 271.445 291.09C271.149 291.239 270.915 291.442 270.745 291.701C270.575 291.96 270.491 292.258 270.494 292.595C270.491 292.92 270.568 293.204 270.726 293.447C270.887 293.687 271.116 293.875 271.412 294.01C271.709 294.143 272.059 294.209 272.463 294.209ZM272.463 289.699C272.784 289.699 273.07 289.635 273.319 289.505C273.568 289.376 273.764 289.196 273.906 288.966C274.051 288.735 274.125 288.466 274.128 288.157C274.125 287.854 274.053 287.589 273.911 287.362C273.772 287.134 273.578 286.959 273.329 286.836C273.079 286.71 272.791 286.647 272.463 286.647C272.128 286.647 271.835 286.71 271.582 286.836C271.333 286.959 271.139 287.134 271 287.362C270.862 287.589 270.794 287.854 270.797 288.157C270.794 288.466 270.863 288.735 271.005 288.966C271.147 289.196 271.343 289.376 271.592 289.505C271.844 289.635 272.135 289.699 272.463 289.699ZM278.692 294.072C278.433 294.072 278.211 293.98 278.025 293.797C277.839 293.611 277.746 293.387 277.746 293.125C277.746 292.867 277.839 292.646 278.025 292.463C278.211 292.277 278.433 292.184 278.692 292.184C278.951 292.184 279.173 292.277 279.359 292.463C279.545 292.646 279.639 292.867 279.639 293.125C279.639 293.299 279.594 293.458 279.506 293.603C279.421 293.745 279.307 293.859 279.165 293.944C279.023 294.029 278.866 294.072 278.692 294.072ZM278.692 289.217C278.433 289.217 278.211 289.125 278.025 288.942C277.839 288.756 277.746 288.532 277.746 288.27C277.746 288.011 277.839 287.791 278.025 287.608C278.211 287.422 278.433 287.328 278.692 287.328C278.951 287.328 279.173 287.422 279.359 287.608C279.545 287.791 279.639 288.011 279.639 288.27C279.639 288.444 279.594 288.603 279.506 288.748C279.421 288.89 279.307 289.004 279.165 289.089C279.023 289.174 278.866 289.217 278.692 289.217ZM285.022 295.435C284.274 295.431 283.636 295.234 283.106 294.843C282.576 294.452 282.17 293.882 281.889 293.135C281.609 292.387 281.468 291.486 281.468 290.433C281.468 289.382 281.609 288.485 281.889 287.74C282.173 286.996 282.58 286.428 283.11 286.037C283.643 285.645 284.281 285.45 285.022 285.45C285.763 285.45 286.399 285.647 286.929 286.041C287.459 286.432 287.864 287 288.145 287.745C288.429 288.486 288.571 289.382 288.571 290.433C288.571 291.49 288.431 292.392 288.15 293.139C287.869 293.884 287.464 294.453 286.934 294.848C286.404 295.239 285.767 295.435 285.022 295.435ZM285.022 294.171C285.678 294.171 286.191 293.851 286.56 293.21C286.932 292.57 287.118 291.644 287.118 290.433C287.118 289.628 287.033 288.948 286.863 288.393C286.696 287.835 286.454 287.412 286.139 287.125C285.827 286.835 285.454 286.69 285.022 286.69C284.369 286.69 283.856 287.011 283.484 287.655C283.112 288.299 282.924 289.224 282.921 290.433C282.921 291.24 283.005 291.923 283.172 292.482C283.342 293.037 283.584 293.458 283.896 293.745C284.208 294.029 284.584 294.171 285.022 294.171ZM293.757 295.435C293.009 295.431 292.371 295.234 291.841 294.843C291.311 294.452 290.905 293.882 290.624 293.135C290.344 292.387 290.203 291.486 290.203 290.433C290.203 289.382 290.344 288.485 290.624 287.74C290.908 286.996 291.315 286.428 291.845 286.037C292.379 285.645 293.016 285.45 293.757 285.45C294.499 285.45 295.134 285.647 295.664 286.041C296.194 286.432 296.6 287 296.88 287.745C297.164 288.486 297.306 289.382 297.306 290.433C297.306 291.49 297.166 292.392 296.885 293.139C296.604 293.884 296.199 294.453 295.669 294.848C295.139 295.239 294.502 295.435 293.757 295.435ZM293.757 294.171C294.413 294.171 294.926 293.851 295.295 293.21C295.667 292.57 295.853 291.644 295.853 290.433C295.853 289.628 295.768 288.948 295.598 288.393C295.431 287.835 295.189 287.412 294.874 287.125C294.562 286.835 294.189 286.69 293.757 286.69C293.104 286.69 292.591 287.011 292.219 287.655C291.847 288.299 291.659 289.224 291.656 290.433C291.656 291.24 291.74 291.923 291.907 292.482C292.077 293.037 292.319 293.458 292.631 293.745C292.943 294.029 293.319 294.171 293.757 294.171Z" fill="#ADAFBD"/>
<path d="M160.78 285.582V295.274H159.313V287.049H159.256L156.937 288.564V287.163L159.355 285.582H160.78ZM163.535 295.274V294.214L166.814 290.816C167.164 290.447 167.453 290.124 167.68 289.846C167.91 289.565 168.082 289.299 168.196 289.046C168.309 288.794 168.366 288.526 168.366 288.242C168.366 287.92 168.29 287.642 168.139 287.409C167.987 287.172 167.781 286.991 167.519 286.865C167.257 286.735 166.962 286.671 166.634 286.671C166.287 286.671 165.984 286.742 165.726 286.884C165.467 287.026 165.268 287.226 165.129 287.485C164.99 287.743 164.921 288.046 164.921 288.393H163.525C163.525 287.803 163.661 287.287 163.932 286.846C164.203 286.404 164.576 286.062 165.049 285.819C165.522 285.573 166.06 285.45 166.662 285.45C167.271 285.45 167.808 285.571 168.271 285.814C168.738 286.054 169.103 286.382 169.365 286.798C169.626 287.212 169.757 287.679 169.757 288.199C169.757 288.559 169.689 288.911 169.554 289.254C169.421 289.598 169.189 289.982 168.858 290.404C168.527 290.824 168.066 291.333 167.476 291.933L165.55 293.949V294.02H169.913V295.274H163.535ZM172.791 294.072C172.533 294.072 172.31 293.98 172.124 293.797C171.938 293.611 171.845 293.387 171.845 293.125C171.845 292.867 171.938 292.646 172.124 292.463C172.31 292.277 172.533 292.184 172.791 292.184C173.05 292.184 173.272 292.277 173.459 292.463C173.645 292.646 173.738 292.867 173.738 293.125C173.738 293.299 173.694 293.458 173.605 293.603C173.52 293.745 173.407 293.859 173.265 293.944C173.123 294.029 172.965 294.072 172.791 294.072ZM172.791 289.217C172.533 289.217 172.31 289.125 172.124 288.942C171.938 288.756 171.845 288.532 171.845 288.27C171.845 288.011 171.938 287.791 172.124 287.608C172.31 287.422 172.533 287.328 172.791 287.328C173.05 287.328 173.272 287.422 173.459 287.608C173.645 287.791 173.738 288.011 173.738 288.27C173.738 288.444 173.694 288.603 173.605 288.748C173.52 288.89 173.407 289.004 173.265 289.089C173.123 289.174 172.965 289.217 172.791 289.217ZM179.121 295.435C178.374 295.431 177.735 295.234 177.205 294.843C176.675 294.452 176.269 293.882 175.989 293.135C175.708 292.387 175.567 291.486 175.567 290.433C175.567 289.382 175.708 288.485 175.989 287.74C176.273 286.996 176.68 286.428 177.21 286.037C177.743 285.645 178.38 285.45 179.121 285.45C179.863 285.45 180.498 285.647 181.028 286.041C181.558 286.432 181.964 287 182.245 287.745C182.528 288.486 182.67 289.382 182.67 290.433C182.67 291.49 182.53 292.392 182.249 293.139C181.968 293.884 181.563 294.453 181.033 294.848C180.503 295.239 179.866 295.435 179.121 295.435ZM179.121 294.171C179.777 294.171 180.29 293.851 180.659 293.21C181.032 292.57 181.218 291.644 181.218 290.433C181.218 289.628 181.132 288.948 180.962 288.393C180.795 287.835 180.554 287.412 180.238 287.125C179.926 286.835 179.554 286.69 179.121 286.69C178.468 286.69 177.956 287.011 177.583 287.655C177.211 288.299 177.023 289.224 177.02 290.433C177.02 291.24 177.104 291.923 177.271 292.482C177.441 293.037 177.683 293.458 177.995 293.745C178.307 294.029 178.683 294.171 179.121 294.171ZM187.856 295.435C187.109 295.431 186.47 295.234 185.94 294.843C185.41 294.452 185.004 293.882 184.724 293.135C184.443 292.387 184.303 291.486 184.303 290.433C184.303 289.382 184.443 288.485 184.724 287.74C185.008 286.996 185.415 286.428 185.945 286.037C186.478 285.645 187.115 285.45 187.856 285.45C188.598 285.45 189.233 285.647 189.763 286.041C190.293 286.432 190.699 287 190.98 287.745C191.264 288.486 191.405 289.382 191.405 290.433C191.405 291.49 191.265 292.392 190.984 293.139C190.704 293.884 190.298 294.453 189.768 294.848C189.238 295.239 188.601 295.435 187.856 295.435ZM187.856 294.171C188.513 294.171 189.025 293.851 189.394 293.21C189.767 292.57 189.953 291.644 189.953 290.433C189.953 289.628 189.868 288.948 189.697 288.393C189.53 287.835 189.289 287.412 188.973 287.125C188.661 286.835 188.289 286.69 187.856 286.69C187.203 286.69 186.691 287.011 186.318 287.655C185.946 288.299 185.758 289.224 185.755 290.433C185.755 291.24 185.839 291.923 186.006 292.482C186.176 293.037 186.418 293.458 186.73 293.745C187.042 294.029 187.418 294.171 187.856 294.171Z" fill="#ADAFBD"/>
<path d="M317.011 295.274V294.214L320.29 290.816C320.64 290.447 320.929 290.124 321.156 289.846C321.386 289.565 321.558 289.299 321.672 289.046C321.785 288.794 321.842 288.526 321.842 288.242C321.842 287.92 321.767 287.642 321.615 287.409C321.464 287.172 321.257 286.991 320.995 286.865C320.733 286.735 320.438 286.671 320.11 286.671C319.763 286.671 319.46 286.742 319.202 286.884C318.943 287.026 318.744 287.226 318.606 287.485C318.467 287.743 318.397 288.046 318.397 288.393H317.001C317.001 287.803 317.137 287.287 317.408 286.846C317.68 286.404 318.052 286.062 318.525 285.819C318.998 285.573 319.536 285.45 320.139 285.45C320.748 285.45 321.284 285.571 321.748 285.814C322.215 286.054 322.579 286.382 322.841 286.798C323.103 287.212 323.234 287.679 323.234 288.199C323.234 288.559 323.166 288.911 323.03 289.254C322.898 289.598 322.666 289.982 322.334 290.404C322.003 290.824 321.543 291.333 320.953 291.933L319.027 293.949V294.02H323.39V295.274H317.011ZM328.993 285.582V295.274H327.526V287.049H327.47L325.151 288.564V287.163L327.569 285.582H328.993ZM332.699 294.072C332.441 294.072 332.218 293.98 332.032 293.797C331.846 293.611 331.753 293.387 331.753 293.125C331.753 292.867 331.846 292.646 332.032 292.463C332.218 292.277 332.441 292.184 332.699 292.184C332.958 292.184 333.18 292.277 333.367 292.463C333.553 292.646 333.646 292.867 333.646 293.125C333.646 293.299 333.602 293.458 333.513 293.603C333.428 293.745 333.314 293.859 333.173 293.944C333.031 294.029 332.873 294.072 332.699 294.072ZM332.699 289.217C332.441 289.217 332.218 289.125 332.032 288.942C331.846 288.756 331.753 288.532 331.753 288.27C331.753 288.011 331.846 287.791 332.032 287.608C332.218 287.422 332.441 287.328 332.699 287.328C332.958 287.328 333.18 287.422 333.367 287.608C333.553 287.791 333.646 288.011 333.646 288.27C333.646 288.444 333.602 288.603 333.513 288.748C333.428 288.89 333.314 289.004 333.173 289.089C333.031 289.174 332.873 289.217 332.699 289.217ZM339.029 295.435C338.282 295.431 337.643 295.234 337.113 294.843C336.583 294.452 336.177 293.882 335.897 293.135C335.616 292.387 335.475 291.486 335.475 290.433C335.475 289.382 335.616 288.485 335.897 287.74C336.181 286.996 336.587 286.428 337.117 286.037C337.651 285.645 338.288 285.45 339.029 285.45C339.771 285.45 340.406 285.647 340.936 286.041C341.466 286.432 341.872 287 342.152 287.745C342.436 288.486 342.578 289.382 342.578 290.433C342.578 291.49 342.438 292.392 342.157 293.139C341.876 293.884 341.471 294.453 340.941 294.848C340.411 295.239 339.774 295.435 339.029 295.435ZM339.029 294.171C339.685 294.171 340.198 293.851 340.567 293.21C340.939 292.57 341.126 291.644 341.126 290.433C341.126 289.628 341.04 288.948 340.87 288.393C340.703 287.835 340.462 287.412 340.146 287.125C339.834 286.835 339.461 286.69 339.029 286.69C338.376 286.69 337.864 287.011 337.491 287.655C337.119 288.299 336.931 289.224 336.928 290.433C336.928 291.24 337.012 291.923 337.179 292.482C337.349 293.037 337.591 293.458 337.903 293.745C338.215 294.029 338.591 294.171 339.029 294.171ZM347.764 295.435C347.017 295.431 346.378 295.234 345.848 294.843C345.318 294.452 344.912 293.882 344.632 293.135C344.351 292.387 344.211 291.486 344.211 290.433C344.211 289.382 344.351 288.485 344.632 287.74C344.916 286.996 345.323 286.428 345.853 286.037C346.386 285.645 347.023 285.45 347.764 285.45C348.506 285.45 349.141 285.647 349.671 286.041C350.201 286.432 350.607 287 350.888 287.745C351.171 288.486 351.313 289.382 351.313 290.433C351.313 291.49 351.173 292.392 350.892 293.139C350.612 293.884 350.206 294.453 349.676 294.848C349.146 295.239 348.509 295.435 347.764 295.435ZM347.764 294.171C348.421 294.171 348.933 293.851 349.302 293.21C349.675 292.57 349.861 291.644 349.861 290.433C349.861 289.628 349.776 288.948 349.605 288.393C349.438 287.835 349.197 287.412 348.881 287.125C348.569 286.835 348.197 286.69 347.764 286.69C347.111 286.69 346.599 287.011 346.226 287.655C345.854 288.299 345.666 289.224 345.663 290.433C345.663 291.24 345.747 291.923 345.914 292.482C346.084 293.037 346.326 293.458 346.638 293.745C346.95 294.029 347.326 294.171 347.764 294.171Z" fill="#ADAFBD"/>
<path d="M214.082 285.582V295.274H212.615V287.049H212.558L210.24 288.564V287.163L212.658 285.582H214.082ZM220.036 295.406C219.443 295.406 218.91 295.293 218.437 295.065C217.966 294.835 217.591 294.52 217.31 294.119C217.03 293.718 216.88 293.261 216.861 292.747H218.28C218.315 293.163 218.5 293.505 218.834 293.774C219.168 294.042 219.569 294.176 220.036 294.176C220.408 294.176 220.738 294.091 221.025 293.92C221.315 293.747 221.542 293.509 221.706 293.206C221.874 292.903 221.957 292.557 221.957 292.169C221.957 291.775 221.872 291.423 221.702 291.114C221.531 290.805 221.296 290.562 220.997 290.385C220.7 290.209 220.359 290.119 219.974 290.116C219.681 290.116 219.386 290.166 219.09 290.267C218.793 290.368 218.553 290.501 218.37 290.665L217.031 290.466L217.575 285.582H222.904V286.836H218.791L218.484 289.548H218.541C218.73 289.365 218.981 289.212 219.293 289.089C219.609 288.966 219.946 288.904 220.306 288.904C220.896 288.904 221.421 289.045 221.882 289.325C222.345 289.606 222.71 289.989 222.975 290.475C223.243 290.958 223.375 291.513 223.372 292.141C223.375 292.769 223.233 293.329 222.946 293.821C222.662 294.313 222.268 294.701 221.763 294.985C221.262 295.266 220.686 295.406 220.036 295.406ZM226.185 294.072C225.926 294.072 225.704 293.98 225.518 293.797C225.332 293.611 225.239 293.387 225.239 293.125C225.239 292.867 225.332 292.646 225.518 292.463C225.704 292.277 225.926 292.184 226.185 292.184C226.444 292.184 226.666 292.277 226.852 292.463C227.038 292.646 227.131 292.867 227.131 293.125C227.131 293.299 227.087 293.458 226.999 293.603C226.914 293.745 226.8 293.859 226.658 293.944C226.516 294.029 226.358 294.072 226.185 294.072ZM226.185 289.217C225.926 289.217 225.704 289.125 225.518 288.942C225.332 288.756 225.239 288.532 225.239 288.27C225.239 288.011 225.332 287.791 225.518 287.608C225.704 287.422 225.926 287.328 226.185 287.328C226.444 287.328 226.666 287.422 226.852 287.608C227.038 287.791 227.131 288.011 227.131 288.27C227.131 288.444 227.087 288.603 226.999 288.748C226.914 288.89 226.8 289.004 226.658 289.089C226.516 289.174 226.358 289.217 226.185 289.217ZM232.515 295.435C231.767 295.431 231.128 295.234 230.598 294.843C230.068 294.452 229.663 293.882 229.382 293.135C229.102 292.387 228.961 291.486 228.961 290.433C228.961 289.382 229.102 288.485 229.382 287.74C229.666 286.996 230.073 286.428 230.603 286.037C231.136 285.645 231.774 285.45 232.515 285.45C233.256 285.45 233.892 285.647 234.422 286.041C234.952 286.432 235.357 287 235.638 287.745C235.922 288.486 236.064 289.382 236.064 290.433C236.064 291.49 235.924 292.392 235.643 293.139C235.362 293.884 234.957 294.453 234.427 294.848C233.897 295.239 233.259 295.435 232.515 295.435ZM232.515 294.171C233.171 294.171 233.684 293.851 234.053 293.21C234.425 292.57 234.611 291.644 234.611 290.433C234.611 289.628 234.526 288.948 234.356 288.393C234.189 287.835 233.947 287.412 233.632 287.125C233.319 286.835 232.947 286.69 232.515 286.69C231.862 286.69 231.349 287.011 230.977 287.655C230.605 288.299 230.417 289.224 230.414 290.433C230.414 291.24 230.497 291.923 230.665 292.482C230.835 293.037 231.076 293.458 231.389 293.745C231.701 294.029 232.076 294.171 232.515 294.171ZM241.25 295.435C240.502 295.431 239.864 295.234 239.334 294.843C238.804 294.452 238.398 293.882 238.117 293.135C237.837 292.387 237.696 291.486 237.696 290.433C237.696 289.382 237.837 288.485 238.117 287.74C238.401 286.996 238.808 286.428 239.338 286.037C239.871 285.645 240.509 285.45 241.25 285.45C241.991 285.45 242.627 285.647 243.157 286.041C243.687 286.432 244.092 287 244.373 287.745C244.657 288.486 244.799 289.382 244.799 290.433C244.799 291.49 244.659 292.392 244.378 293.139C244.097 293.884 243.692 294.453 243.162 294.848C242.632 295.239 241.995 295.435 241.25 295.435ZM241.25 294.171C241.906 294.171 242.419 293.851 242.788 293.21C243.16 292.57 243.346 291.644 243.346 290.433C243.346 289.628 243.261 288.948 243.091 288.393C242.924 287.835 242.682 287.412 242.367 287.125C242.054 286.835 241.682 286.69 241.25 286.69C240.597 286.69 240.084 287.011 239.712 287.655C239.34 288.299 239.152 289.224 239.149 290.433C239.149 291.24 239.233 291.923 239.4 292.482C239.57 293.037 239.811 293.458 240.124 293.745C240.436 294.029 240.812 294.171 241.25 294.171Z" fill="#ADAFBD"/>
<path d="M371.784 295.435C371.036 295.431 370.397 295.234 369.867 294.843C369.337 294.452 368.932 293.882 368.651 293.135C368.37 292.387 368.23 291.486 368.23 290.433C368.23 289.382 368.37 288.485 368.651 287.74C368.935 286.996 369.342 286.428 369.872 286.037C370.405 285.645 371.042 285.45 371.784 285.45C372.525 285.45 373.161 285.647 373.691 286.041C374.221 286.432 374.626 287 374.907 287.745C375.191 288.486 375.333 289.382 375.333 290.433C375.333 291.49 375.192 292.392 374.912 293.139C374.631 293.884 374.226 294.453 373.696 294.848C373.166 295.239 372.528 295.435 371.784 295.435ZM371.784 294.171C372.44 294.171 372.953 293.851 373.322 293.21C373.694 292.57 373.88 291.644 373.88 290.433C373.88 289.628 373.795 288.948 373.625 288.393C373.457 287.835 373.216 287.412 372.901 287.125C372.588 286.835 372.216 286.69 371.784 286.69C371.131 286.69 370.618 287.011 370.246 287.655C369.874 288.299 369.686 289.224 369.683 290.433C369.683 291.24 369.766 291.923 369.934 292.482C370.104 293.037 370.345 293.458 370.658 293.745C370.97 294.029 371.345 294.171 371.784 294.171ZM380.519 295.435C379.771 295.431 379.132 295.234 378.602 294.843C378.072 294.452 377.667 293.882 377.386 293.135C377.105 292.387 376.965 291.486 376.965 290.433C376.965 289.382 377.105 288.485 377.386 287.74C377.67 286.996 378.077 286.428 378.607 286.037C379.14 285.645 379.777 285.45 380.519 285.45C381.26 285.45 381.896 285.647 382.426 286.041C382.956 286.432 383.361 287 383.642 287.745C383.926 288.486 384.068 289.382 384.068 290.433C384.068 291.49 383.928 292.392 383.647 293.139C383.366 293.884 382.961 294.453 382.431 294.848C381.901 295.239 381.263 295.435 380.519 295.435ZM380.519 294.171C381.175 294.171 381.688 293.851 382.057 293.21C382.429 292.57 382.615 291.644 382.615 290.433C382.615 289.628 382.53 288.948 382.36 288.393C382.192 287.835 381.951 287.412 381.636 287.125C381.323 286.835 380.951 286.69 380.519 286.69C379.866 286.69 379.353 287.011 378.981 287.655C378.609 288.299 378.421 289.224 378.418 290.433C378.418 291.24 378.501 291.923 378.669 292.482C378.839 293.037 379.08 293.458 379.393 293.745C379.705 294.029 380.08 294.171 380.519 294.171ZM386.831 294.072C386.572 294.072 386.35 293.98 386.164 293.797C385.978 293.611 385.885 293.387 385.885 293.125C385.885 292.867 385.978 292.646 386.164 292.463C386.35 292.277 386.572 292.184 386.831 292.184C387.09 292.184 387.312 292.277 387.498 292.463C387.684 292.646 387.778 292.867 387.778 293.125C387.778 293.299 387.733 293.458 387.645 293.603C387.56 293.745 387.446 293.859 387.304 293.944C387.162 294.029 387.005 294.072 386.831 294.072ZM386.831 289.217C386.572 289.217 386.35 289.125 386.164 288.942C385.978 288.756 385.885 288.532 385.885 288.27C385.885 288.011 385.978 287.791 386.164 287.608C386.35 287.422 386.572 287.328 386.831 287.328C387.09 287.328 387.312 287.422 387.498 287.608C387.684 287.791 387.778 288.011 387.778 288.27C387.778 288.444 387.733 288.603 387.645 288.748C387.56 288.89 387.446 289.004 387.304 289.089C387.162 289.174 387.005 289.217 386.831 289.217ZM393.161 295.435C392.413 295.431 391.775 295.234 391.245 294.843C390.715 294.452 390.309 293.882 390.028 293.135C389.748 292.387 389.607 291.486 389.607 290.433C389.607 289.382 389.748 288.485 390.028 287.74C390.312 286.996 390.719 286.428 391.249 286.037C391.782 285.645 392.42 285.45 393.161 285.45C393.902 285.45 394.538 285.647 395.068 286.041C395.598 286.432 396.003 287 396.284 287.745C396.568 288.486 396.71 289.382 396.71 290.433C396.71 291.49 396.57 292.392 396.289 293.139C396.008 293.884 395.603 294.453 395.073 294.848C394.543 295.239 393.906 295.435 393.161 295.435ZM393.161 294.171C393.817 294.171 394.33 293.851 394.699 293.21C395.071 292.57 395.257 291.644 395.257 290.433C395.257 289.628 395.172 288.948 395.002 288.393C394.835 287.835 394.593 287.412 394.278 287.125C393.966 286.835 393.593 286.69 393.161 286.69C392.508 286.69 391.995 287.011 391.623 287.655C391.251 288.299 391.063 289.224 391.06 290.433C391.06 291.24 391.144 291.923 391.311 292.482C391.481 293.037 391.722 293.458 392.035 293.745C392.347 294.029 392.723 294.171 393.161 294.171ZM401.896 295.435C401.148 295.431 400.51 295.234 399.98 294.843C399.45 294.452 399.044 293.882 398.763 293.135C398.483 292.387 398.342 291.486 398.342 290.433C398.342 289.382 398.483 288.485 398.763 287.74C399.047 286.996 399.454 286.428 399.984 286.037C400.518 285.645 401.155 285.45 401.896 285.45C402.638 285.45 403.273 285.647 403.803 286.041C404.333 286.432 404.739 287 405.019 287.745C405.303 288.486 405.445 289.382 405.445 290.433C405.445 291.49 405.305 292.392 405.024 293.139C404.743 293.884 404.338 294.453 403.808 294.848C403.278 295.239 402.641 295.435 401.896 295.435ZM401.896 294.171C402.552 294.171 403.065 293.851 403.434 293.21C403.806 292.57 403.992 291.644 403.992 290.433C403.992 289.628 403.907 288.948 403.737 288.393C403.57 287.835 403.328 287.412 403.013 287.125C402.701 286.835 402.328 286.69 401.896 286.69C401.243 286.69 400.73 287.011 400.358 287.655C399.986 288.299 399.798 289.224 399.795 290.433C399.795 291.24 399.879 291.923 400.046 292.482C400.216 293.037 400.458 293.458 400.77 293.745C401.082 294.029 401.458 294.171 401.896 294.171Z" fill="#ADAFBD"/>
<rect opacity="0.04" x="311.319" y="103.329" width="45.688" height="167.523" fill="url(#paint0_linear_3_499)"/>
<path opacity="0.04" d="M98.1086 103.329H143.797V270.852H98.1086V103.329Z" fill="url(#paint1_linear_3_499)"/>
<rect opacity="0.04" x="151.411" y="103.329" width="45.688" height="167.523" fill="url(#paint2_linear_3_499)"/>
<line x1="204.714" y1="268.948" x2="250.402" y2="268.948" stroke="#13B383" stroke-width="3.80733"/>
<rect opacity="0.16" x="204.714" y="103.329" width="45.688" height="167.523" fill="#13B383"/>
<rect opacity="0.04" x="258.017" y="103.329" width="45.688" height="167.523" fill="url(#paint3_linear_3_499)"/>
<path opacity="0.04" d="M364.622 103.329H410.31V270.852H364.622V103.329Z" fill="url(#paint4_linear_3_499)"/>
<path d="M99.0604 199.587C112.127 158.526 144.55 92.5122 169.715 156.946C201.17 237.489 235.046 116.201 268.921 172.107C302.796 228.013 315.379 215.695 333.768 191.059C352.158 166.422 376.354 151.261 393.776 184.426C407.713 210.957 413.779 211.273 415.069 208.115" stroke="#13B383" stroke-width="0.951833" stroke-linecap="round"/>
<path opacity="0.1" d="M106.675 199.587C119.741 158.526 152.165 92.5122 177.329 156.946C208.785 237.489 242.66 116.201 276.536 172.107C310.411 228.013 322.993 215.695 341.383 191.059C359.772 166.422 383.969 151.261 401.391 184.426C415.328 210.957 421.393 211.273 422.684 208.115" stroke="#13B383" stroke-width="0.951833" stroke-linecap="round"/>
<circle cx="227.558" cy="165.198" r="4.75917" fill="#13B383"/>
<g filter="url(#filter0_d_3_499)">
<rect x="189.485" y="118.558" width="76.1467" height="30.4587" rx="15.2293" fill="white"/>
</g>
<path d="M207.426 128.53L209.745 133.754L208.68 134.355L205.855 128.53H207.426ZM209.007 133.74L211.316 128.53H212.887L210.062 134.355L209.007 133.74ZM210.09 133.125V138.221H208.633V133.125H210.09ZM212.144 133.338V134.294H206.532V133.338H212.144ZM212.144 135.212V136.167H206.532V135.212H212.144ZM217.813 128.53V138.221H216.346V129.997H216.289L213.97 131.511V130.11L216.388 128.53H217.813ZM223.766 138.354C223.173 138.354 222.64 138.24 222.167 138.013C221.697 137.783 221.322 137.467 221.041 137.067C220.76 136.666 220.61 136.208 220.591 135.694H222.011C222.046 136.111 222.23 136.453 222.565 136.721C222.899 136.989 223.3 137.123 223.766 137.123C224.139 137.123 224.468 137.038 224.756 136.868C225.046 136.694 225.273 136.456 225.437 136.153C225.604 135.85 225.688 135.505 225.688 135.117C225.688 134.723 225.603 134.371 225.432 134.062C225.262 133.752 225.027 133.51 224.727 133.333C224.431 133.156 224.09 133.066 223.705 133.063C223.412 133.063 223.117 133.114 222.82 133.215C222.524 133.316 222.284 133.448 222.101 133.612L220.762 133.413L221.306 128.53H226.634V129.784H222.522L222.214 132.495H222.271C222.46 132.312 222.711 132.159 223.024 132.036C223.339 131.913 223.677 131.852 224.036 131.852C224.626 131.852 225.151 131.992 225.612 132.273C226.076 132.554 226.44 132.937 226.705 133.423C226.973 133.905 227.106 134.461 227.103 135.089C227.106 135.716 226.964 136.276 226.677 136.768C226.393 137.261 225.998 137.649 225.494 137.933C224.992 138.213 224.416 138.354 223.766 138.354ZM229.564 138.311C229.305 138.311 229.083 138.22 228.897 138.037C228.711 137.851 228.618 137.627 228.618 137.365C228.618 137.106 228.711 136.885 228.897 136.702C229.083 136.516 229.305 136.423 229.564 136.423C229.823 136.423 230.045 136.516 230.231 136.702C230.417 136.885 230.511 137.106 230.511 137.365C230.511 137.538 230.466 137.698 230.378 137.843C230.293 137.985 230.179 138.098 230.037 138.183C229.895 138.269 229.738 138.311 229.564 138.311ZM232.52 138.221V137.161L235.799 133.764C236.15 133.394 236.438 133.071 236.665 132.793C236.896 132.513 237.068 132.246 237.181 131.994C237.295 131.741 237.352 131.473 237.352 131.189C237.352 130.867 237.276 130.59 237.124 130.356C236.973 130.12 236.766 129.938 236.505 129.812C236.243 129.683 235.948 129.618 235.62 129.618C235.273 129.618 234.97 129.689 234.711 129.831C234.452 129.973 234.254 130.173 234.115 130.432C233.976 130.691 233.907 130.994 233.907 131.341H232.511C232.511 130.751 232.646 130.235 232.918 129.793C233.189 129.352 233.561 129.009 234.034 128.766C234.508 128.52 235.045 128.397 235.648 128.397C236.257 128.397 236.793 128.519 237.257 128.762C237.724 129.001 238.088 129.33 238.35 129.746C238.612 130.159 238.743 130.626 238.743 131.147C238.743 131.506 238.675 131.858 238.539 132.202C238.407 132.546 238.175 132.929 237.844 133.352C237.512 133.771 237.052 134.281 236.462 134.88L234.536 136.896V136.967H238.899V138.221H232.52ZM244.2 138.354C243.55 138.354 242.969 138.242 242.458 138.018C241.95 137.794 241.548 137.483 241.252 137.085C240.958 136.685 240.8 136.221 240.778 135.694H242.264C242.283 135.981 242.379 136.231 242.553 136.442C242.73 136.65 242.96 136.811 243.244 136.925C243.528 137.038 243.843 137.095 244.19 137.095C244.572 137.095 244.91 137.029 245.203 136.896C245.499 136.764 245.731 136.579 245.899 136.343C246.066 136.103 246.149 135.827 246.149 135.514C246.149 135.189 246.066 134.904 245.899 134.658C245.734 134.409 245.493 134.213 245.175 134.071C244.859 133.929 244.477 133.858 244.029 133.858H243.211V132.666H244.029C244.389 132.666 244.704 132.601 244.976 132.472C245.25 132.342 245.465 132.162 245.619 131.932C245.774 131.699 245.851 131.426 245.851 131.114C245.851 130.814 245.783 130.554 245.648 130.333C245.515 130.109 245.326 129.934 245.08 129.807C244.837 129.681 244.55 129.618 244.219 129.618C243.903 129.618 243.608 129.677 243.334 129.793C243.062 129.907 242.842 130.071 242.671 130.285C242.501 130.497 242.409 130.751 242.397 131.047H240.982C240.998 130.524 241.152 130.063 241.446 129.666C241.742 129.268 242.133 128.957 242.619 128.733C243.105 128.509 243.644 128.397 244.238 128.397C244.859 128.397 245.395 128.519 245.846 128.762C246.301 129.001 246.651 129.322 246.897 129.722C247.146 130.123 247.269 130.561 247.266 131.038C247.269 131.58 247.118 132.041 246.812 132.42C246.509 132.798 246.105 133.052 245.6 133.181V133.257C246.244 133.355 246.742 133.611 247.096 134.024C247.452 134.437 247.629 134.95 247.626 135.562C247.629 136.095 247.481 136.573 247.181 136.996C246.884 137.418 246.479 137.751 245.965 137.994C245.451 138.234 244.862 138.354 244.2 138.354Z" fill="#ADAFBD"/>
<rect x="410.31" y="197.561" width="18.0848" height="20.9403" fill="white"/>
<g opacity="0.24" filter="url(#filter1_f_3_499)">
<rect x="113.338" y="69.0627" width="45.688" height="22.844" rx="11.422" fill="#13B383"/>
</g>
<g filter="url(#filter2_d_3_499)">
<rect x="98.1086" y="57.6409" width="76.1467" height="30.4587" rx="15.2293" fill="#13B383"/>
</g>
<path d="M127.059 77.3037H123.921V67.6123H127.158C128.107 67.6123 128.923 67.8063 129.604 68.1944C130.286 68.5792 130.808 69.1329 131.171 69.8553C131.537 70.5746 131.72 71.4375 131.72 72.4438C131.72 73.4533 131.535 74.3209 131.166 75.0465C130.8 75.7721 130.27 76.3305 129.576 76.7217C128.882 77.1097 128.043 77.3037 127.059 77.3037ZM125.383 76.026H126.978C127.716 76.026 128.33 75.8872 128.819 75.6096C129.308 75.3288 129.674 74.9235 129.917 74.3935C130.16 73.8603 130.281 73.2104 130.281 72.4438C130.281 71.6835 130.16 71.0384 129.917 70.5084C129.677 69.9784 129.319 69.5761 128.843 69.3017C128.366 69.0272 127.775 68.89 127.068 68.89H125.383V76.026ZM135.673 77.4646C135.212 77.4646 134.796 77.3794 134.424 77.2091C134.051 77.0356 133.756 76.7848 133.539 76.4567C133.324 76.1286 133.217 75.7263 133.217 75.25C133.217 74.8399 133.296 74.5023 133.454 74.2373C133.611 73.9723 133.824 73.7625 134.092 73.6079C134.361 73.4533 134.66 73.3366 134.991 73.2577C135.323 73.1789 135.66 73.1189 136.004 73.0779C136.44 73.0274 136.793 72.9864 137.064 72.9549C137.335 72.9202 137.533 72.865 137.656 72.7893C137.779 72.7135 137.84 72.5905 137.84 72.4202V72.387C137.84 71.9738 137.724 71.6536 137.49 71.4264C137.26 71.1993 136.916 71.0857 136.458 71.0857C135.982 71.0857 135.607 71.1914 135.332 71.4027C135.061 71.611 134.873 71.8428 134.769 72.0984L133.439 71.7955C133.597 71.3539 133.827 70.9974 134.13 70.7261C134.436 70.4516 134.788 70.2528 135.186 70.1298C135.583 70.0036 136.001 69.9405 136.44 69.9405C136.73 69.9405 137.037 69.9752 137.362 70.0446C137.69 70.1109 137.996 70.2339 138.28 70.4137C138.567 70.5936 138.802 70.8507 138.985 71.1851C139.168 71.5163 139.26 71.9469 139.26 72.4769V77.3037H137.878V76.31H137.821C137.73 76.4929 137.593 76.6728 137.41 76.8494C137.227 77.0261 136.992 77.1728 136.705 77.2895C136.417 77.4062 136.074 77.4646 135.673 77.4646ZM135.981 76.3289C136.372 76.3289 136.706 76.2516 136.984 76.097C137.264 75.9424 137.477 75.7405 137.623 75.4913C137.771 75.2389 137.845 74.9692 137.845 74.6821V73.7452C137.794 73.7956 137.697 73.8429 137.552 73.8871C137.41 73.9281 137.247 73.9644 137.064 73.996C136.881 74.0243 136.703 74.0512 136.529 74.0764C136.356 74.0985 136.211 74.1174 136.094 74.1332C135.82 74.1679 135.569 74.2263 135.342 74.3083C135.118 74.3903 134.938 74.5086 134.802 74.6632C134.67 74.8146 134.603 75.0165 134.603 75.2689C134.603 75.6191 134.733 75.8841 134.991 76.0639C135.25 76.2406 135.58 76.3289 135.981 76.3289ZM141.912 80.0294C141.7 80.0294 141.508 80.0121 141.334 79.9774C141.161 79.9458 141.032 79.9111 140.946 79.8733L141.287 78.7139C141.546 78.7833 141.776 78.8133 141.978 78.8038C142.18 78.7943 142.358 78.7186 142.513 78.5767C142.671 78.4347 142.809 78.2028 142.929 77.881L143.104 77.3984L140.445 70.0352H141.959L143.8 75.6759H143.876L145.716 70.0352H147.235L144.24 78.2738C144.101 78.6524 143.925 78.9726 143.71 79.2344C143.495 79.4994 143.24 79.6982 142.943 79.8307C142.647 79.9632 142.303 80.0294 141.912 80.0294Z" fill="white"/>
<rect x="185.677" y="57.6409" width="76.1467" height="30.4587" rx="15.2293" fill="#FBFBFB"/>
<path d="M208.628 77.3037L205.94 67.6123H207.478L209.366 75.1175H209.456L211.42 67.6123H212.944L214.908 75.1222H214.998L216.881 67.6123H218.424L215.731 77.3037H214.259L212.22 70.0446H212.144L210.105 77.3037H208.628ZM222.193 77.4504C221.477 77.4504 220.861 77.2974 220.343 76.9914C219.829 76.6822 219.431 76.2484 219.151 75.6901C218.873 75.1285 218.734 74.4707 218.734 73.7168C218.734 72.9722 218.873 72.316 219.151 71.7482C219.431 71.1803 219.823 70.7371 220.324 70.4185C220.829 70.0998 221.419 69.9405 222.094 69.9405C222.504 69.9405 222.902 70.0083 223.287 70.144C223.671 70.2797 224.017 70.4926 224.323 70.7828C224.629 71.0731 224.87 71.4501 225.047 71.9138C225.224 72.3744 225.312 72.9344 225.312 73.5937V74.0953H219.534V73.0353H223.925C223.925 72.6631 223.85 72.3334 223.698 72.0463C223.547 71.7561 223.334 71.5274 223.059 71.3602C222.788 71.193 222.47 71.1094 222.104 71.1094C221.706 71.1094 221.359 71.2072 221.063 71.4027C220.769 71.5952 220.542 71.8476 220.381 72.1599C220.223 72.4691 220.144 72.805 220.144 73.1678V73.996C220.144 74.4818 220.23 74.8951 220.4 75.2358C220.574 75.5765 220.815 75.8368 221.124 76.0166C221.433 76.1932 221.794 76.2816 222.208 76.2816C222.476 76.2816 222.72 76.2437 222.941 76.168C223.162 76.0891 223.353 75.9724 223.514 75.8178C223.675 75.6632 223.798 75.4724 223.883 75.2452L225.222 75.4866C225.115 75.8809 224.922 76.2264 224.645 76.5229C224.37 76.8163 224.025 77.045 223.608 77.2091C223.195 77.37 222.723 77.4504 222.193 77.4504ZM230.148 77.4504C229.432 77.4504 228.815 77.2974 228.297 76.9914C227.783 76.6822 227.386 76.2484 227.105 75.6901C226.827 75.1285 226.689 74.4707 226.689 73.7168C226.689 72.9722 226.827 72.316 227.105 71.7482C227.386 71.1803 227.777 70.7371 228.279 70.4185C228.783 70.0998 229.373 69.9405 230.048 69.9405C230.459 69.9405 230.856 70.0083 231.241 70.144C231.626 70.2797 231.971 70.4926 232.277 70.7828C232.583 71.0731 232.825 71.4501 233.001 71.9138C233.178 72.3744 233.266 72.9344 233.266 73.5937V74.0953H227.488V73.0353H231.88C231.88 72.6631 231.804 72.3334 231.653 72.0463C231.501 71.7561 231.288 71.5274 231.014 71.3602C230.742 71.193 230.424 71.1094 230.058 71.1094C229.66 71.1094 229.313 71.2072 229.017 71.4027C228.723 71.5952 228.496 71.8476 228.335 72.1599C228.178 72.4691 228.099 72.805 228.099 73.1678V73.996C228.099 74.4818 228.184 74.8951 228.354 75.2358C228.528 75.5765 228.769 75.8368 229.078 76.0166C229.387 76.1932 229.749 76.2816 230.162 76.2816C230.43 76.2816 230.675 76.2437 230.895 76.168C231.116 76.0891 231.307 75.9724 231.468 75.8178C231.629 75.6632 231.752 75.4724 231.837 75.2452L233.176 75.4866C233.069 75.8809 232.877 76.2264 232.599 76.5229C232.325 76.8163 231.979 77.045 231.563 77.2091C231.149 77.37 230.678 77.4504 230.148 77.4504ZM236.271 74.8383L236.261 73.111H236.507L239.403 70.0352H241.097L237.794 73.5369H237.572L236.271 74.8383ZM234.969 77.3037V67.6123H236.384V77.3037H234.969ZM239.56 77.3037L236.957 73.8493L237.932 72.8602L241.296 77.3037H239.56Z" fill="#ADAFBD"/>
<rect x="273.246" y="57.6409" width="76.1467" height="30.4587" rx="15.2293" fill="#FBFBFB"/>
<path d="M291.444 67.6123H293.218L296.304 75.1459H296.417L299.503 67.6123H301.277V77.3037H299.886V70.2907H299.796L296.938 77.2895H295.783L292.925 70.286H292.835V77.3037H291.444V67.6123ZM306.484 77.4504C305.803 77.4504 305.208 77.2942 304.7 76.9819C304.192 76.6696 303.798 76.2327 303.517 75.6711C303.237 75.1096 303.096 74.4534 303.096 73.7026C303.096 72.9486 303.237 72.2892 303.517 71.7245C303.798 71.1598 304.192 70.7213 304.7 70.409C305.208 70.0967 305.803 69.9405 306.484 69.9405C307.166 69.9405 307.76 70.0967 308.268 70.409C308.776 70.7213 309.171 71.1598 309.451 71.7245C309.732 72.2892 309.873 72.9486 309.873 73.7026C309.873 74.4534 309.732 75.1096 309.451 75.6711C309.171 76.2327 308.776 76.6696 308.268 76.9819C307.76 77.2942 307.166 77.4504 306.484 77.4504ZM306.489 76.2626C306.931 76.2626 307.297 76.1459 307.587 75.9125C307.877 75.679 308.092 75.3683 308.231 74.9802C308.373 74.5922 308.443 74.1647 308.443 73.6978C308.443 73.2341 308.373 72.8082 308.231 72.4202C308.092 72.029 307.877 71.7151 307.587 71.4785C307.297 71.2419 306.931 71.1236 306.489 71.1236C306.044 71.1236 305.675 71.2419 305.382 71.4785C305.092 71.7151 304.875 72.029 304.734 72.4202C304.595 72.8082 304.525 73.2341 304.525 73.6978C304.525 74.1647 304.595 74.5922 304.734 74.9802C304.875 75.3683 305.092 75.679 305.382 75.9125C305.675 76.1459 306.044 76.2626 306.489 76.2626ZM313 72.988V77.3037H311.585V70.0352H312.943V71.2182H313.033C313.2 70.8333 313.462 70.5242 313.819 70.2907C314.178 70.0572 314.631 69.9405 315.177 69.9405C315.672 69.9405 316.106 70.0446 316.478 70.2528C316.85 70.4579 317.139 70.7639 317.344 71.1709C317.549 71.5778 317.652 72.081 317.652 72.6804V77.3037H316.237V72.8508C316.237 72.3239 316.1 71.9122 315.825 71.6157C315.551 71.316 315.174 71.1661 314.694 71.1661C314.366 71.1661 314.074 71.2371 313.819 71.3791C313.566 71.5211 313.366 71.7293 313.218 72.0037C313.073 72.275 313 72.6031 313 72.988ZM323.076 70.0352V71.1709H319.105V70.0352H323.076ZM320.17 68.2937H321.585V75.1695C321.585 75.444 321.626 75.6506 321.708 75.7894C321.79 75.9251 321.896 76.0181 322.025 76.0686C322.158 76.1159 322.301 76.1396 322.456 76.1396C322.569 76.1396 322.669 76.1317 322.754 76.1159C322.839 76.1002 322.905 76.0876 322.953 76.0781L323.208 77.2469C323.126 77.2785 323.009 77.31 322.858 77.3416C322.706 77.3763 322.517 77.3952 322.29 77.3984C321.918 77.4047 321.571 77.3384 321.249 77.1996C320.927 77.0608 320.667 76.8463 320.468 76.556C320.269 76.2658 320.17 75.9014 320.17 75.4629V68.2937ZM326.345 72.988V77.3037H324.93V67.6123H326.326V71.2182H326.416C326.586 70.827 326.847 70.5163 327.197 70.286C327.547 70.0557 328.004 69.9405 328.569 69.9405C329.068 69.9405 329.503 70.0431 329.875 70.2481C330.251 70.4532 330.541 70.7592 330.746 71.1661C330.954 71.57 331.058 72.0747 331.058 72.6804V77.3037H329.643V72.8508C329.643 72.3176 329.506 71.9044 329.232 71.611C328.957 71.3144 328.575 71.1661 328.086 71.1661C327.752 71.1661 327.452 71.2371 327.187 71.3791C326.926 71.5211 326.719 71.7293 326.567 72.0037C326.419 72.275 326.345 72.6031 326.345 72.988Z" fill="#ADAFBD"/>
<rect x="360.815" y="57.6409" width="76.1467" height="30.4587" rx="15.2293" fill="#FBFBFB"/>
<path d="M383.976 67.6123H385.637L388.168 72.0179H388.272L390.804 67.6123H392.465L388.949 73.4991V77.3037H387.492V73.4991L383.976 67.6123ZM395.801 77.4504C395.085 77.4504 394.468 77.2974 393.951 76.9914C393.436 76.6822 393.039 76.2484 392.758 75.6901C392.48 75.1285 392.342 74.4707 392.342 73.7168C392.342 72.9722 392.48 72.316 392.758 71.7482C393.039 71.1803 393.43 70.7371 393.932 70.4185C394.436 70.0998 395.026 69.9405 395.701 69.9405C396.112 69.9405 396.509 70.0083 396.894 70.144C397.279 70.2797 397.624 70.4926 397.93 70.7828C398.236 71.0731 398.478 71.4501 398.654 71.9138C398.831 72.3744 398.919 72.9344 398.919 73.5937V74.0953H393.141V73.0353H397.533C397.533 72.6631 397.457 72.3334 397.306 72.0463C397.154 71.7561 396.941 71.5274 396.667 71.3602C396.395 71.193 396.077 71.1094 395.711 71.1094C395.313 71.1094 394.966 71.2072 394.67 71.4027C394.376 71.5952 394.149 71.8476 393.988 72.1599C393.831 72.4691 393.752 72.805 393.752 73.1678V73.996C393.752 74.4818 393.837 74.8951 394.007 75.2358C394.181 75.5765 394.422 75.8368 394.731 76.0166C395.04 76.1932 395.402 76.2816 395.815 76.2816C396.083 76.2816 396.328 76.2437 396.548 76.168C396.769 76.0891 396.96 75.9724 397.121 75.8178C397.282 75.6632 397.405 75.4724 397.49 75.2452L398.829 75.4866C398.722 75.8809 398.53 76.2264 398.252 76.5229C397.978 76.8163 397.632 77.045 397.216 77.2091C396.802 77.37 396.331 77.4504 395.801 77.4504ZM402.738 77.4646C402.277 77.4646 401.861 77.3794 401.488 77.2091C401.116 77.0356 400.821 76.7848 400.603 76.4567C400.389 76.1286 400.282 75.7263 400.282 75.25C400.282 74.8399 400.361 74.5023 400.518 74.2373C400.676 73.9723 400.889 73.7625 401.157 73.6079C401.425 73.4533 401.725 73.3366 402.056 73.2577C402.387 73.1789 402.725 73.1189 403.069 73.0779C403.504 73.0274 403.858 72.9864 404.129 72.9549C404.4 72.9202 404.597 72.865 404.72 72.7893C404.843 72.7135 404.905 72.5905 404.905 72.4202V72.387C404.905 71.9738 404.788 71.6536 404.555 71.4264C404.324 71.1993 403.981 71.0857 403.523 71.0857C403.047 71.0857 402.671 71.1914 402.397 71.4027C402.126 71.611 401.938 71.8428 401.834 72.0984L400.504 71.7955C400.662 71.3539 400.892 70.9974 401.195 70.7261C401.501 70.4516 401.853 70.2528 402.25 70.1298C402.648 70.0036 403.066 69.9405 403.504 69.9405C403.794 69.9405 404.102 69.9752 404.427 70.0446C404.755 70.1109 405.061 70.2339 405.345 70.4137C405.632 70.5936 405.867 70.8507 406.05 71.1851C406.233 71.5163 406.325 71.9469 406.325 72.4769V77.3037H404.943V76.31H404.886C404.795 76.4929 404.657 76.6728 404.474 76.8494C404.291 77.0261 404.056 77.1728 403.769 77.2895C403.482 77.4062 403.138 77.4646 402.738 77.4646ZM403.045 76.3289C403.436 76.3289 403.771 76.2516 404.048 76.097C404.329 75.9424 404.542 75.7405 404.687 75.4913C404.836 75.2389 404.91 74.9692 404.91 74.6821V73.7452C404.859 73.7956 404.761 73.8429 404.616 73.8871C404.474 73.9281 404.312 73.9644 404.129 73.996C403.946 74.0243 403.768 74.0512 403.594 74.0764C403.421 74.0985 403.276 74.1174 403.159 74.1332C402.884 74.1679 402.634 74.2263 402.406 74.3083C402.182 74.3903 402.003 74.5086 401.867 74.6632C401.734 74.8146 401.668 75.0165 401.668 75.2689C401.668 75.6191 401.798 75.8841 402.056 76.0639C402.315 76.2406 402.645 76.3289 403.045 76.3289ZM408.342 77.3037V70.0352H409.71V71.1898H409.786C409.918 70.7986 410.152 70.491 410.486 70.267C410.824 70.0399 411.205 69.9263 411.631 69.9263C411.72 69.9263 411.824 69.9295 411.944 69.9358C412.067 69.9421 412.163 69.95 412.232 69.9595V71.3128C412.175 71.2971 412.074 71.2797 411.929 71.2608C411.784 71.2387 411.639 71.2277 411.494 71.2277C411.16 71.2277 410.861 71.2986 410.6 71.4406C410.341 71.5794 410.136 71.7734 409.984 72.0227C409.833 72.2687 409.757 72.5495 409.757 72.865V77.3037H408.342Z" fill="#ADAFBD"/>
<rect x="360.815" y="46.219" width="71.3875" height="53.3027" fill="url(#paint5_linear_3_499)"/>
<path d="M102.416 36.8086H98.6522L104.387 20.1948H108.914L114.641 36.8086H110.877L106.716 23.9913H106.586L102.416 36.8086ZM102.181 30.2783H111.072V33.0202H102.181V30.2783ZM120.26 20.1948V36.8086H116.805V20.1948H120.26ZM126.713 20.1948V36.8086H123.257V20.1948H126.713ZM144.303 24.9729C144.238 24.3185 143.959 23.8101 143.467 23.4478C142.975 23.0854 142.307 22.9043 141.463 22.9043C140.89 22.9043 140.406 22.9854 140.011 23.1476C139.617 23.3045 139.314 23.5235 139.103 23.8047C138.897 24.0859 138.795 24.405 138.795 24.762C138.784 25.0594 138.846 25.319 138.981 25.5407C139.122 25.7625 139.314 25.9544 139.557 26.1167C139.8 26.2735 140.082 26.4114 140.401 26.5304C140.72 26.644 141.061 26.7413 141.423 26.8225L142.916 27.1794C143.64 27.3416 144.305 27.558 144.911 27.8284C145.517 28.0988 146.041 28.4314 146.485 28.8262C146.928 29.221 147.272 29.6861 147.515 30.2215C147.764 30.7569 147.891 31.3707 147.896 32.0629C147.891 33.0797 147.631 33.9612 147.118 34.7075C146.609 35.4484 145.874 36.0244 144.911 36.4354C143.954 36.841 142.799 37.0438 141.447 37.0438C140.106 37.0438 138.938 36.8383 137.943 36.4273C136.953 36.0163 136.18 35.4079 135.623 34.6021C135.071 33.7908 134.782 32.7876 134.755 31.5924H138.154C138.192 32.1495 138.351 32.6146 138.632 32.9877C138.919 33.3555 139.3 33.634 139.776 33.8233C140.257 34.0072 140.801 34.0991 141.407 34.0991C142.002 34.0991 142.518 34.0126 142.956 33.8395C143.4 33.6665 143.743 33.4258 143.986 33.1175C144.23 32.8093 144.351 32.455 144.351 32.0548C144.351 31.6817 144.241 31.368 144.019 31.1138C143.803 30.8596 143.483 30.6433 143.062 30.4648C142.645 30.2864 142.134 30.1241 141.528 29.9781L139.719 29.5238C138.319 29.1831 137.213 28.6504 136.401 27.9257C135.59 27.201 135.187 26.2249 135.193 24.9972C135.187 23.9913 135.455 23.1125 135.996 22.3607C136.542 21.609 137.291 21.0222 138.243 20.6004C139.195 20.1786 140.276 19.9676 141.488 19.9676C142.721 19.9676 143.797 20.1786 144.716 20.6004C145.641 21.0222 146.361 21.609 146.874 22.3607C147.388 23.1125 147.653 23.9832 147.669 24.9729H144.303ZM157.05 24.3482V26.9441H149.547V24.3482H157.05ZM151.25 21.3629H154.706V32.9796C154.706 33.2987 154.755 33.5475 154.852 33.726C154.949 33.899 155.085 34.0207 155.258 34.091C155.436 34.1613 155.642 34.1965 155.874 34.1965C156.036 34.1965 156.199 34.1829 156.361 34.1559C156.523 34.1235 156.647 34.0991 156.734 34.0829L157.278 36.6545C157.104 36.7085 156.861 36.7707 156.547 36.841C156.234 36.9168 155.852 36.9627 155.404 36.979C154.571 37.0114 153.841 36.9005 153.213 36.6463C152.591 36.3922 152.107 35.9974 151.761 35.462C151.415 34.9266 151.245 34.2505 151.25 33.4339V21.3629ZM163.083 37.0438C162.288 37.0438 161.58 36.9059 160.958 36.6301C160.336 36.3489 159.844 35.9352 159.481 35.389C159.124 34.8373 158.946 34.1505 158.946 33.3285C158.946 32.6362 159.073 32.0548 159.327 31.5843C159.581 31.1138 159.927 30.7352 160.366 30.4486C160.804 30.162 161.301 29.9457 161.858 29.7996C162.421 29.6536 163.01 29.5509 163.627 29.4914C164.351 29.4157 164.935 29.3454 165.379 29.2805C165.822 29.2102 166.144 29.1074 166.344 28.9722C166.544 28.837 166.644 28.6369 166.644 28.3719V28.3232C166.644 27.8094 166.482 27.4119 166.158 27.1307C165.839 26.8495 165.384 26.7089 164.795 26.7089C164.173 26.7089 163.678 26.8468 163.31 27.1226C162.942 27.393 162.699 27.7337 162.58 28.1447L159.384 27.8852C159.546 27.128 159.865 26.4736 160.341 25.922C160.817 25.365 161.431 24.9377 162.183 24.6403C162.94 24.3374 163.816 24.186 164.811 24.186C165.503 24.186 166.166 24.2671 166.799 24.4294C167.437 24.5916 168.002 24.8431 168.494 25.1838C168.992 25.5245 169.384 25.9626 169.67 26.498C169.957 27.028 170.1 27.6634 170.1 28.4043V36.8086H166.823V35.0807H166.725C166.525 35.4701 166.258 35.8135 165.922 36.1109C165.587 36.403 165.184 36.6328 164.714 36.8005C164.243 36.9627 163.7 37.0438 163.083 37.0438ZM164.073 34.6589C164.581 34.6589 165.03 34.5588 165.419 34.3587C165.809 34.1532 166.114 33.8774 166.336 33.5313C166.558 33.1851 166.669 32.793 166.669 32.355V31.0327C166.561 31.103 166.412 31.1679 166.223 31.2274C166.039 31.2815 165.83 31.3328 165.598 31.3815C165.365 31.4248 165.133 31.4653 164.9 31.5032C164.668 31.5357 164.457 31.5654 164.267 31.5924C163.862 31.6519 163.508 31.7466 163.205 31.8764C162.902 32.0062 162.667 32.1819 162.499 32.4037C162.331 32.62 162.248 32.8904 162.248 33.2149C162.248 33.6854 162.418 34.045 162.759 34.2938C163.105 34.5372 163.543 34.6589 164.073 34.6589ZM179.637 24.3482V26.9441H172.134V24.3482H179.637ZM173.837 21.3629H177.293V32.9796C177.293 33.2987 177.342 33.5475 177.439 33.726C177.536 33.899 177.672 34.0207 177.845 34.091C178.023 34.1613 178.229 34.1965 178.461 34.1965C178.623 34.1965 178.786 34.1829 178.948 34.1559C179.11 34.1235 179.234 34.0991 179.321 34.0829L179.865 36.6545C179.691 36.7085 179.448 36.7707 179.134 36.841C178.821 36.9168 178.439 36.9627 177.991 36.979C177.158 37.0114 176.428 36.9005 175.8 36.6463C175.178 36.3922 174.694 35.9974 174.348 35.462C174.002 34.9266 173.832 34.2505 173.837 33.4339V21.3629ZM182.117 36.8086V24.3482H185.573V36.8086H182.117ZM183.853 22.742C183.339 22.742 182.898 22.5717 182.531 22.2309C182.168 21.8848 181.987 21.4711 181.987 20.9898C181.987 20.5139 182.168 20.1055 182.531 19.7648C182.898 19.4187 183.339 19.2456 183.853 19.2456C184.367 19.2456 184.805 19.4187 185.167 19.7648C185.535 20.1055 185.719 20.5139 185.719 20.9898C185.719 21.4711 185.535 21.8848 185.167 22.2309C184.805 22.5717 184.367 22.742 183.853 22.742ZM198.937 27.9014L195.773 28.0961C195.719 27.8257 195.603 27.5823 195.424 27.366C195.246 27.1442 195.011 26.9685 194.719 26.8387C194.432 26.7035 194.089 26.6359 193.688 26.6359C193.153 26.6359 192.701 26.7494 192.334 26.9766C191.966 27.1983 191.782 27.4958 191.782 27.8689C191.782 28.1664 191.901 28.4179 192.139 28.6234C192.377 28.8289 192.785 28.9938 193.364 29.1182L195.619 29.5725C196.83 29.8213 197.734 30.2215 198.329 30.7731C198.923 31.3247 199.221 32.0494 199.221 32.9472C199.221 33.7638 198.98 34.4804 198.499 35.0969C198.023 35.7134 197.369 36.1948 196.536 36.5409C195.708 36.8816 194.754 37.052 193.672 37.052C192.023 37.052 190.708 36.7085 189.73 36.0217C188.756 35.3295 188.186 34.3884 188.018 33.1987L191.417 33.0202C191.52 33.5231 191.768 33.9071 192.163 34.1721C192.558 34.4317 193.064 34.5615 193.68 34.5615C194.286 34.5615 194.773 34.4452 195.14 34.2127C195.514 33.9747 195.703 33.6692 195.708 33.296C195.703 32.9823 195.57 32.7254 195.311 32.5253C195.051 32.3198 194.651 32.163 194.11 32.0548L191.952 31.6249C190.735 31.3815 189.83 30.9597 189.235 30.3594C188.645 29.7591 188.35 28.9938 188.35 28.0636C188.35 27.2632 188.567 26.5737 188.999 25.995C189.438 25.4163 190.051 24.9702 190.841 24.6565C191.636 24.3428 192.566 24.186 193.632 24.186C195.205 24.186 196.444 24.5186 197.347 25.1838C198.255 25.849 198.785 26.7549 198.937 27.9014ZM208.253 24.3482V26.9441H200.749V24.3482H208.253ZM202.453 21.3629H205.909V32.9796C205.909 33.2987 205.957 33.5475 206.055 33.726C206.152 33.899 206.287 34.0207 206.46 34.091C206.639 34.1613 206.844 34.1965 207.077 34.1965C207.239 34.1965 207.401 34.1829 207.564 34.1559C207.726 34.1235 207.85 34.0991 207.937 34.0829L208.48 36.6545C208.307 36.7085 208.064 36.7707 207.75 36.841C207.436 36.9168 207.055 36.9627 206.606 36.979C205.773 37.0114 205.043 36.9005 204.416 36.6463C203.794 36.3922 203.31 35.9974 202.964 35.462C202.618 34.9266 202.447 34.2505 202.453 33.4339V21.3629ZM210.733 36.8086V24.3482H214.188V36.8086H210.733ZM212.469 22.742C211.955 22.742 211.514 22.5717 211.146 22.2309C210.784 21.8848 210.603 21.4711 210.603 20.9898C210.603 20.5139 210.784 20.1055 211.146 19.7648C211.514 19.4187 211.955 19.2456 212.469 19.2456C212.982 19.2456 213.42 19.4187 213.783 19.7648C214.151 20.1055 214.334 20.5139 214.334 20.9898C214.334 21.4711 214.151 21.8848 213.783 22.2309C213.42 22.5717 212.982 22.742 212.469 22.742ZM222.815 37.052C221.539 37.052 220.441 36.7816 219.522 36.2407C218.608 35.6945 217.904 34.9374 217.412 33.9693C216.926 33.0013 216.682 31.8872 216.682 30.6271C216.682 29.3508 216.928 28.2313 217.42 27.2686C217.918 26.3006 218.624 25.5461 219.538 25.0053C220.452 24.4591 221.539 24.186 222.799 24.186C223.886 24.186 224.838 24.3834 225.654 24.7782C226.471 25.173 227.117 25.7273 227.593 26.4412C228.069 27.1551 228.331 27.9933 228.38 28.956H225.119C225.027 28.334 224.784 27.8338 224.389 27.4552C223.999 27.0712 223.488 26.8792 222.856 26.8792C222.32 26.8792 221.852 27.0253 221.452 27.3173C221.057 27.6039 220.749 28.0231 220.527 28.5747C220.306 29.1263 220.195 29.7942 220.195 30.5784C220.195 31.3734 220.303 32.0494 220.519 32.6065C220.741 33.1635 221.052 33.588 221.452 33.8801C221.852 34.1721 222.32 34.3181 222.856 34.3181C223.25 34.3181 223.605 34.237 223.918 34.0748C224.237 33.9125 224.5 33.6773 224.705 33.369C224.916 33.0553 225.054 32.6795 225.119 32.2414H228.38C228.326 33.1932 228.066 34.0315 227.601 34.7562C227.142 35.4755 226.506 36.0379 225.695 36.4435C224.884 36.8492 223.924 37.052 222.815 37.052Z" fill="#363B64"/>
<g filter="url(#filter3_d_3_499)">
<circle cx="51.07" cy="242.162" r="40.07" fill="#13B383"/>
</g>
<path d="M55.8781 230.706C55.8223 231.054 55.7945 231.403 55.7945 231.751C55.7945 234.887 58.331 237.422 61.453 237.422C61.8014 237.422 62.1359 237.382 62.4843 237.326V248.572C62.4843 253.298 59.6969 256.099 54.9582 256.099H44.66C39.92 256.099 37.1326 253.298 37.1326 248.572V238.26C37.1326 233.521 39.92 230.706 44.66 230.706H55.8781ZM56.1582 239.18C55.7805 239.138 55.4056 239.305 55.1812 239.612L51.8098 243.974L47.9478 240.936C47.7109 240.755 47.4321 240.683 47.1534 240.713C46.8761 240.755 46.6252 240.906 46.4565 241.129L42.3325 246.497L42.2475 246.622C42.0106 247.067 42.1221 247.638 42.5402 247.946C42.7353 248.072 42.9444 248.155 43.1813 248.155C43.5033 248.169 43.8085 248 44.0036 247.737L47.5018 243.234L51.4739 246.218L51.5994 246.3C52.0454 246.537 52.6028 246.427 52.9234 246.007L56.9512 240.81L56.8955 240.838C57.1185 240.532 57.1603 240.141 57.007 239.793C56.8551 239.444 56.5192 239.208 56.1582 239.18ZM61.6482 228.225C63.5019 228.225 65.0071 229.73 65.0071 231.583C65.0071 233.437 63.5019 234.942 61.6482 234.942C59.7946 234.942 58.2894 233.437 58.2894 231.583C58.2894 229.73 59.7946 228.225 61.6482 228.225Z" fill="black"/>
<defs>
<filter id="filter0_d_3_499" x="164.737" y="101.425" width="125.642" height="79.9541" filterUnits="userSpaceOnUse" color-interpolation-filters="sRGB">
<feFlood flood-opacity="0" result="BackgroundImageFix"/>
<feColorMatrix in="SourceAlpha" type="matrix" values="0 0 0 0 0 0 0 0 0 0 0 0 0 0 0 0 0 0 127 0" result="hardAlpha"/>
<feMorphology radius="1.90367" operator="dilate" in="SourceAlpha" result="effect1_dropShadow_3_499"/>
<feOffset dy="7.61467"/>
<feGaussianBlur stdDeviation="11.422"/>
<feColorMatrix type="matrix" values="0 0 0 0 0.211765 0 0 0 0 0.231373 0 0 0 0 0.392157 0 0 0 0.08 0"/>
<feBlend mode="normal" in2="BackgroundImageFix" result="effect1_dropShadow_3_499"/>
<feBlend mode="normal" in="SourceGraphic" in2="effect1_dropShadow_3_499" result="shape"/>
</filter>
<filter id="filter1_f_3_499" x="101.916" y="57.6407" width="68.532" height="45.688" filterUnits="userSpaceOnUse" color-interpolation-filters="sRGB">
<feFlood flood-opacity="0" result="BackgroundImageFix"/>
<feBlend mode="normal" in="SourceGraphic" in2="BackgroundImageFix" result="shape"/>
<feGaussianBlur stdDeviation="5.711" result="effect1_foregroundBlur_3_499"/>
</filter>
<filter id="filter2_d_3_499" x="73.361" y="40.5079" width="125.642" height="79.9541" filterUnits="userSpaceOnUse" color-interpolation-filters="sRGB">
<feFlood flood-opacity="0" result="BackgroundImageFix"/>
<feColorMatrix in="SourceAlpha" type="matrix" values="0 0 0 0 0 0 0 0 0 0 0 0 0 0 0 0 0 0 127 0" result="hardAlpha"/>
<feMorphology radius="1.90367" operator="dilate" in="SourceAlpha" result="effect1_dropShadow_3_499"/>
<feOffset dy="7.61467"/>
<feGaussianBlur stdDeviation="11.422"/>
<feColorMatrix type="matrix" values="0 0 0 0 0.211765 0 0 0 0 0.231373 0 0 0 0 0.392157 0 0 0 0.08 0"/>
<feBlend mode="normal" in2="BackgroundImageFix" result="effect1_dropShadow_3_499"/>
<feBlend mode="normal" in="SourceGraphic" in2="effect1_dropShadow_3_499" result="shape"/>
</filter>
<filter id="filter3_d_3_499" x="0.546962" y="191.639" width="108.015" height="108.015" filterUnits="userSpaceOnUse" color-interpolation-filters="sRGB">
<feFlood flood-opacity="0" result="BackgroundImageFix"/>
<feColorMatrix in="SourceAlpha" type="matrix" values="0 0 0 0 0 0 0 0 0 0 0 0 0 0 0 0 0 0 127 0" result="hardAlpha"/>
<feOffset dx="3.48435" dy="3.48435"/>
<feGaussianBlur stdDeviation="6.96869"/>
<feComposite in2="hardAlpha" operator="out"/>
<feColorMatrix type="matrix" values="0 0 0 0 0 0 0 0 0 0 0 0 0 0 0 0 0 0 0.25 0"/>
<feBlend mode="normal" in2="BackgroundImageFix" result="effect1_dropShadow_3_499"/>
<feBlend mode="normal" in="SourceGraphic" in2="effect1_dropShadow_3_499" result="shape"/>
</filter>
<linearGradient id="paint0_linear_3_499" x1="311.319" y1="103.329" x2="374.721" y2="110.325" gradientUnits="userSpaceOnUse">
<stop stop-color="#C69DFF"/>
<stop offset="1" stop-color="#4F76FF"/>
</linearGradient>
<linearGradient id="paint1_linear_3_499" x1="98.1086" y1="103.329" x2="161.51" y2="110.325" gradientUnits="userSpaceOnUse">
<stop stop-color="#C69DFF"/>
<stop offset="1" stop-color="#4F76FF"/>
</linearGradient>
<linearGradient id="paint2_linear_3_499" x1="151.411" y1="103.329" x2="214.813" y2="110.325" gradientUnits="userSpaceOnUse">
<stop stop-color="#C69DFF"/>
<stop offset="1" stop-color="#4F76FF"/>
</linearGradient>
<linearGradient id="paint3_linear_3_499" x1="258.017" y1="103.329" x2="321.418" y2="110.325" gradientUnits="userSpaceOnUse">
<stop stop-color="#C69DFF"/>
<stop offset="1" stop-color="#4F76FF"/>
</linearGradient>
<linearGradient id="paint4_linear_3_499" x1="364.622" y1="103.329" x2="428.024" y2="110.325" gradientUnits="userSpaceOnUse">
<stop stop-color="#C69DFF"/>
<stop offset="1" stop-color="#4F76FF"/>
</linearGradient>
<linearGradient id="paint5_linear_3_499" x1="432.202" y1="72.8703" x2="360.815" y2="72.8703" gradientUnits="userSpaceOnUse">
<stop stop-color="white"/>
<stop offset="1" stop-color="white" stop-opacity="0"/>
</linearGradient>
</defs>
</svg>
